HIERARCHY
ROOT Hips
{
	OFFSET 0.00000 0.00000 0.00000
	CHANNELS 6 Xposition Yposition Zposition Yrotation Zrotation Xrotation 
	JOINT Lumbar
	{
		OFFSET 0 0 0
		CHANNELS 3 Zrotation Xrotation Yrotation
		JOINT Neck
		{
			OFFSET 0.00 0.2701 0.00
			CHANNELS 3 Zrotation Xrotation Yrotation
			End Site
			{
				OFFSET 0.00 0.1379 0.00
			}
		}
		JOINT RightShoulder
		{
			OFFSET 0.0119 0.2289 0.1181
			CHANNELS 3 Zrotation Xrotation Yrotation
			JOINT RightElbow
			{
				OFFSET 0.00 -0.1475 0.00
				CHANNELS 2 Zrotation Yrotation
				JOINT RightWrist
				{
					OFFSET 0.00 -0.1605 0.00
					CHANNELS 2 Zrotation Xrotation
					End Site
					{
						OFFSET 0.0040 -0.1068 0.0006
					}
				}
			}
		}
		JOINT LeftShoulder
		{
			OFFSET 0.0119 0.2289 -0.1181
			CHANNELS 3 Zrotation Xrotation Yrotation
			JOINT LeftElbow
			{
				OFFSET 0.00 -0.1475 0.00
				CHANNELS 2 Zrotation Yrotation
				JOINT LeftWrist
				{
					OFFSET 0.00 -0.1605 0.00
					CHANNELS 2 Zrotation Xrotation
					End Site
					{
						OFFSET 0.0040 -0.1068 -0.0006
					}
				}
			}
		}
	}
	JOINT RightHip
	{
		OFFSET 0.0316 -0.0424 0.0458
		CHANNELS 3 Zrotation Xrotation Yrotation
		JOINT RightKnee
		{
			OFFSET 0.00 -0.2438 0.00
			CHANNELS 1 Zrotation
			JOINT RightAnkle
			{
				OFFSET 0.00 -0.2449 0.00
				CHANNELS 3 Zrotation Xrotation Yrotation
				End Site
				{
					OFFSET 0.1237 -0.0542 0.0051
				}
			}
		}
	}
	JOINT LeftHip
	{
		OFFSET 0.0316 -0.0424 -0.0458
		CHANNELS 3 Zrotation Xrotation Yrotation
		JOINT LeftKnee
		{
			OFFSET 0.00 -0.2438 0.00
			CHANNELS 1 Zrotation
			JOINT LeftAnkle
			{
				OFFSET 0.00 -0.2449 0.00
				CHANNELS 3 Zrotation Xrotation Yrotation
				End Site
				{
					OFFSET 0.1237 -0.0542 -0.0051
				}
			}
		}
	}
}
MOTION
Frames: 25
Frame Time: 0.02
0.41261 0.08047 -0.17015 84.76848 -65.89989 -28.26528 40.47475 1.31168 4.2278 6.33193 -1.78214 -2.11994 43.61508 -22.7274 49.58248 38.72805 26.70004 37.70529 -11.89094 41.05219 21.90132 -49.2069 45.84496 -20.30814 33.0497 14.54963 69.86629 6.72851 -17.56001 -13.88167 -6.84971 -2.42339 -3.42447 58.57422 17.55025 9.40316 -7.14362 -14.5329 3.69034 4.45377
0.41245 0.08054 -0.17072 84.52203 -66.40585 -28.52447 40.20169 1.23668 4.14865 6.21671 -1.84612 -2.11994 43.04939 -22.06759 46.7422 38.79865 30.94381 36.75305 -11.03286 41.02276 22.19893 -50.03594 46.02643 -18.51607 33.72424 15.28602 70.31693 6.56299 -17.84431 -13.88345 -6.84907 -2.39282 -3.4109 59.00727 17.46294 9.10574 -7.02569 -14.57599 3.67727 4.44933
0.41223 0.08057 -0.17136 84.32684 -66.89333 -28.74877 39.93212 1.17658 4.06309 6.09987 -1.90959 -2.11994 42.32883 -21.20672 43.18028 38.78503 36.25976 35.57256 -9.94781 41.13044 22.4545 -51.0835 46.06273 -16.30756 34.57552 16.19455 70.73131 6.37485 -18.17626 -13.90054 -6.84179 -2.35821 -3.39533 59.38422 17.38418 8.93624 -6.88451 -14.60635 3.6521 4.43847
0.41203 0.08062 -0.17198 84.10814 -67.38629 -28.98807 39.6631 1.11062 3.98245 5.98484 -1.97346 -2.11994 41.72599 -20.48641 40.14739 38.80633 40.78752 34.56569 -9.02628 41.16064 22.70956 -51.96854 46.15874 -14.40703 35.30142 16.97539 71.15862 6.19987 -18.46381 -13.91057 -6.83787 -2.32783 -3.3818 59.78373 17.29976 8.70733 -6.75516 -14.64255 3.6332 4.43092
0.41187 0.08067 -0.17255 83.88804 -67.89266 -29.23339 39.38383 1.04097 3.89278 5.86521 -2.03675 -2.11994 40.92955 -19.56223 36.28124 38.84094 46.56299 33.27144 -7.85426 41.25515 23.04522 -53.11761 46.27813 -12.00946 36.21963 17.96204 71.60296 6.01269 -18.84658 -13.92091 -6.83268 -2.28744 -3.36353 60.19723 17.22186 8.47183 -6.61897 -14.67954 3.61165 4.42207
0.41161 0.0807 -0.17324 83.68565 -68.36572 -29.4555 39.12709 0.98251 3.82038 5.75527 -2.10107 -2.11994 40.49305 -19.00872 33.95778 38.82685 50.02586 32.51218 -7.14394 41.25126 23.2052 -53.77994 46.31329 -10.5275 36.78232 18.57063 72.00128 5.8451 -19.04381 -13.93453 -6.82839 -2.2667 -3.35455 60.56772 17.1328 8.28636 -6.49433 -14.71116 3.59247 4.41422
0.41115 0.08069 -0.17423 83.4982 -68.75769 -29.63994 38.93305 0.95105 3.80044 5.6668 -2.16836 -2.11994 41.13956 -19.58705 36.26457 38.71447 46.55474 33.36561 -7.81987 40.90302 22.87242 -52.91537 46.1773 -11.91873 36.26918 17.98424 72.29467 5.74298 -18.70329 -13.95034 -6.82919 -2.30356 -3.37284 60.83447 17.01119 8.19097 -6.38494 -14.73458 3.58345 4.41127
0.4106 0.08067 -0.17535 83.33085 -69.11511 -29.79873 38.76142 0.93033 3.79785 5.58918 -2.23663 -2.11994 42.14387 -20.53456 40.11382 38.5531 40.77085 34.75039 -8.95828 40.45705 22.36673 -51.5742 45.95649 -14.20697 35.39873 17.02894 72.53986 5.6604 -18.1774 -13.96944 -6.83089 -2.35988 -3.40031 61.06095 16.8785 8.14569 -6.29571 -14.75201 3.57707 4.4094
0.41008 0.08065 -0.17643 83.16841 -69.48462 -29.95757 38.57894 0.90491 3.78505 5.51016 -2.30453 -2.11994 42.95059 -21.27457 43.12896 38.40465 36.23429 35.83974 -9.84805 40.08187 21.95333 -50.5375 45.75961 -15.92268 34.72683 16.31531 72.79902 5.56506 -17.74463 -13.98909 -6.83155 -2.40584 -3.4229 61.30273 16.75031 8.09057 -6.20701 -14.7701 3.56895 4.40662
0.4096 0.08063 -0.17744 82.9485 -69.87042 -30.16453 38.39972 0.87941 3.78092 5.41594 -2.37236 -2.11994 43.89967 -22.17528 46.67719 38.29392 30.91172 37.14904 -10.89096 39.60321 21.48469 -49.14624 45.62347 -18.30324 33.91667 15.30294 73.09269 5.48507 -17.27392 -14.00079 -6.83477 -2.45825 -3.44857 61.54874 16.62315 7.98702 -6.06133 -14.79754 3.56259 4.40538
0.40901 0.08061 -0.17862 82.85235 -70.2122 -30.2652 38.21856 0.85624 3.76409 5.3563 -2.44024 -2.11994 44.63916 -22.83151 49.49544 38.09253 26.65663 38.12922 -11.72933 39.3113 21.08546 -48.36658 45.33734 -19.53807 33.29705 14.8134 73.30068 5.37832 -16.84028 -14.02942 -6.8328 -2.50164 -3.46986 61.7853 16.49298 7.99222 -6.05857 -14.80288 3.55349 4.40129
0.40815 0.08057 -0.18023 83.09279 -70.45857 -30.08224 38.03009 0.8382 3.69877 5.38667 -2.51067 -2.11994 44.71323 -22.72435 49.88597 37.66692 25.96405 38.07041 -11.87779 39.58996 20.96422 -49.48081 44.70393 -17.2185 33.37756 15.93794 73.30734 5.19102 -16.52922 -14.10577 -6.81783 -2.5178 -3.47825 61.93621 16.34091 8.3061 -6.28195 -14.75964 3.53451 4.38877
0.40716 0.08051 -0.182 83.45654 -70.65824 -29.79275 37.83823 0.82169 3.62217 5.4519 -2.58056 -2.11994 44.56442 -22.3595 49.50004 37.14977 26.41004 37.6616 -11.80856 40.05289 20.91067 -51.20708 43.91505 -13.75104 33.64502 17.58512 73.22476 4.97673 -16.26508 -14.19863 -6.79738 -2.52386 -3.48171 62.09259 16.18904 8.72331 -6.67912 -14.69191 3.5128 4.37328
0.40623 0.08046 -0.18371 83.76414 -70.86827 -29.54976 37.64556 0.80368 3.55636 5.50321 -2.649 -2.11994 44.51816 -22.11168 49.49426 36.6654 26.29852 37.41636 -11.84704 40.41115 20.79769 -52.5969 43.1673 -10.92097 33.76926 18.94017 73.16839 4.77596 -15.99722 -14.2827 -6.77844 -2.53287 -3.48644 62.29182 16.04788 9.079 -7.10411 -14.62885 3.4938 4.35956
0.40533 0.08042 -0.18538 84.07429 -71.12455 -29.31367 37.46355 0.78995 3.46582 5.54726 -2.72483 -2.11994 44.47991 -21.87502 49.42123 36.21559 26.28033 37.17716 -11.86143 40.85675 20.80025 -54.22575 42.53939 -7.62514 34.1273 20.51479 73.17276 4.57 -15.65362 -14.37236 -6.76357 -2.54915 -3.4954 62.2968 15.86129 9.49774 -7.07892 -14.59475 3.46969 4.34468
0.40431 0.08036 -0.18717 84.40646 -71.27185 -29.03859 37.25831 0.76689 3.42567 5.61399 -2.78489 -2.11994 44.36623 -21.55155 49.29067 35.67387 26.36297 36.827 -11.87206 41.16255 20.57976 -55.49655 41.62828 -5.0255 34.04717 21.75878 73.02769 4.36889 -15.47507 -14.45423 -6.73903 -2.54806 -3.49449 62.70999 15.76883 9.80936 -8.03235 -14.49219 3.45428 4.33074
0.40301 0.08025 -0.18922 84.78235 -71.14633 -28.68015 36.98939 0.72333 3.51237 5.74017 -2.80338 -2.11994 44.10538 -21.02814 49.12245 34.89088 26.5244 36.31713 -11.88747 41.06155 19.73441 -55.7311 39.95608 -4.55354 32.70945 21.97947 72.51154 4.1818 -15.79642 -14.51068 -6.68802 -2.49778 -3.46547 64.23239 15.94226 9.79782 -11.63772 -14.22816 3.47459 4.32689
0.40157 0.08011 -0.1914 85.17271 -70.90951 -28.28741 36.69746 0.66933 3.65299 5.88731 -2.80553 -2.11994 43.77209 -20.42804 48.92551 34.02056 26.76205 35.68819 -11.90866 40.80891 18.66225 -55.56772 38.00892 -4.84238 30.92311 21.84632 71.84422 4.00169 -16.27353 -14.55863 -6.62764 -2.43093 -3.427 66.16724 16.20939 9.67598 -16.21671 -13.89281 3.50183 4.32294
0.40014 0.07997 -0.19353 85.54885 -70.71324 -27.91066 36.41583 0.61628 3.77857 6.02078 -2.81414 -2.11994 43.4674 -19.8774 48.78267 33.19707 26.9027 35.07791 -11.95339 40.61088 17.6891 -55.52158 36.19804 -4.81413 29.34941 21.86759 71.23392 3.82201 -16.64286 -14.61045 -6.57227 -2.37402 -3.3942 67.92635 16.42968 9.60455 -20.36338 -13.57508 3.51846 4.31442
0.39892 0.07989 -0.19559 85.96516 -70.55882 -27.52522 36.13356 0.57894 3.86339 6.17138 -2.82741 -2.11994 43.17835 -19.25934 48.45187 32.34062 27.27409 34.62766 -11.89168 40.48175 16.7331 -55.76404 34.32967 -4.58062 27.75866 21.94052 70.67147 3.62557 -17.16691 -14.66309 -6.51364 -2.30674 -3.35552 69.64247 16.66776 9.5317 -24.50043 -13.31596 3.56588 4.32476
0.39724 0.07966 -0.19783 86.29516 -70.28998 -27.15525 35.84871 0.50683 4.04658 6.2928 -2.82632 -2.11994 42.83616 -18.76305 48.5013 31.53278 27.25721 33.79242 -12.04158 40.16804 15.68952 -55.30419 32.52303 -5.02633 26.07741 21.80667 69.97253 3.46681 -17.40887 -14.71148 -6.45953 -2.25706 -3.32679 71.53815 16.89124 9.43912 -28.85243 -12.92188 3.55163 4.29648
0.39439 0.07906 -0.20043 86.42039 -69.74431 -26.80186 35.55022 0.33764 4.48336 6.31155 -2.79594 -2.11994 42.41768 -18.6536 49.72724 30.88521 25.35931 32.176 -12.8993 39.40268 14.43517 -52.98749 30.90978 -6.66302 24.41016 21.25945 68.9512 3.40388 -16.80278 -14.75229 -6.42108 -2.26154 -3.32892 73.89607 17.04939 9.27256 -33.85476 -12.14073 3.35859 4.15601
0.39107 0.0783 -0.20323 86.45039 -69.08515 -26.47234 35.2527 0.13464 5.01789 6.30336 -2.75026 -2.11994 41.93873 -18.66396 51.31464 30.28922 23.1903 30.14028 -13.9492 38.45131 13.10499 -49.97651 29.37694 -9.03984 22.64361 20.50161 67.79449 3.37989 -15.91396 -14.7884 -6.38738 -2.28398 -3.34118 76.40758 17.18969 9.09525 -38.98672 -11.23244 3.10459 3.97775
0.38792 0.07758 -0.20601 86.49942 -68.47063 -26.15492 34.96208 -0.05065 5.51131 6.31825 -2.70767 -2.11994 41.45492 -18.60072 52.66649 29.66698 21.6833 28.12036 -14.82813 37.57132 11.82494 -47.29138 27.83753 -11.43056 20.8129 19.78956 66.68928 3.34256 -15.17352 -14.82551 -6.35093 -2.2974 -3.34817 78.805 17.33992 8.9564 -43.86136 -10.40322 2.8829 3.82042
0.38495 0.07697 -0.2085 86.65268 -67.88227 -25.73884 34.63763 -0.24672 5.99398 6.2875 -2.68167 -2.11994 41.10803 -18.61831 54.33263 29.0533 17.9863 26.79468 -16.05331 36.74447 10.4699 -44.55316 26.16305 -12.43369 19.40346 19.27167 65.62281 3.28739 -14.35069 -14.8681 -6.3166 -2.31427 -3.35782 81.40502 17.48703 8.68365 -49.59593 -9.48107 2.64176 3.6471
